<svg t="1573548018407" class="icon" viewBox="0 0 1024 1024" version="1.1" xmlns="http://www.w3.org/2000/svg" p-id="2037" width="48" height="48"><path d="M512 559.388a48.64 48.64 0 0 1-48.81-48.298V85.276c0-26.737 21.958-48.298 48.753-48.298s48.81 21.618 48.81 48.298V511.09c0 26.738-22.015 48.298-48.81 48.298z m127.26-308.053a48.128 48.128 0 0 1 72.59-41.643C845.37 281.43 930.134 418.93 930.134 570.71c0 237.056-202.922 424.96-445.44 410.17C278.528 967.565 110.478 803.555 95.29 600.746 82.09 443.164 161.963 295.879 296.732 217.316a48.242 48.242 0 0 1 73.5 41.13c0 16.726-9.044 31.346-24.177 41.245a313.458 313.458 0 0 0-154.738 269.596c0 186.823 165.66 333.597 355.954 312.32 145.75-16.043 263.566-129.991 281.145-272.327 17.067-129.934-49.72-253.724-163.612-315.96a45.739 45.739 0 0 1-25.6-41.985z" fill="#ffffff" p-id="2038"></path></svg>